<svg width="24" height="24" viewBox="0 0 24 24" fill="none" xmlns="http://www.w3.org/2000/svg">
  <path d="M3.5 4.5h3.2l1.8 1.8v3.2h-5V4.5Z" stroke="currentColor" stroke-width="1.55" stroke-linejoin="round"/>
  <path d="M3.5 10h5v4.8h-5V10Z" stroke="currentColor" stroke-width="1.55" stroke-linejoin="round"/>
  <path d="M3.5 15.3h5v4.2h-5v-4.2Z" stroke="currentColor" stroke-width="1.55" stroke-linejoin="round"/>
  <path d="M8.6 7.2c2 0 3.2.9 4.2 2.4" stroke="currentColor" stroke-width="1.55" stroke-linecap="round"/>
  <path d="M8.7 12.4h3.5" stroke="currentColor" stroke-width="1.55" stroke-linecap="round"/>
  <path d="M8.6 17.2c2 0 3.2-.8 4.2-2.2" stroke="currentColor" stroke-width="1.55" stroke-linecap="round"/>
  <circle cx="14.1" cy="12.3" r="3.2" stroke="currentColor" stroke-width="1.55"/>
  <path d="m12.8 12.4 1 1 1.8-2" stroke="currentColor" stroke-width="1.55" stroke-linecap="round" stroke-linejoin="round"/>
  <path d="M17.3 12.3h1.4" stroke="currentColor" stroke-width="1.55" stroke-linecap="round"/>
  <path d="M19 7.2h1.5l1 1v8.6H19V7.2Z" stroke="currentColor" stroke-width="1.55" stroke-linejoin="round"/>
  <path d="M20.5 7.2v1.1h1" stroke="currentColor" stroke-width="1.55" stroke-linejoin="round"/>
  <path d="M20 11h.6M20 13.4h.6" stroke="currentColor" stroke-width="1.55" stroke-linecap="round"/>
</svg>
