<svg xmlns="http://www.w3.org/2000/svg" width="1024" height="1024" viewBox="0 0 1024 1024" fill="none">
  <defs>
    <linearGradient id="bg" x1="128" y1="96" x2="896" y2="928" gradientUnits="userSpaceOnUse">
      <stop offset="0%" stop-color="#07111f"/>
      <stop offset="55%" stop-color="#0a1730"/>
      <stop offset="100%" stop-color="#040913"/>
    </linearGradient>
    <pattern id="grid" width="48" height="48" patternUnits="userSpaceOnUse">
      <path d="M48 0H0V48" stroke="#17304d" stroke-width="1"/>
    </pattern>
    <radialGradient id="coolHalo" cx="0" cy="0" r="1" gradientUnits="userSpaceOnUse" gradientTransform="translate(744 458) rotate(90) scale(360)">
      <stop offset="0%" stop-color="#183b71" stop-opacity="0.72"/>
      <stop offset="60%" stop-color="#102445" stop-opacity="0.18"/>
      <stop offset="100%" stop-color="#08111f" stop-opacity="0"/>
    </radialGradient>
    <radialGradient id="warmHalo" cx="0" cy="0" r="1" gradientUnits="userSpaceOnUse" gradientTransform="translate(248 526) rotate(90) scale(250)">
      <stop offset="0%" stop-color="#ff7a34" stop-opacity="0.36"/>
      <stop offset="58%" stop-color="#ff6a3d" stop-opacity="0.14"/>
      <stop offset="100%" stop-color="#ff6a3d" stop-opacity="0"/>
    </radialGradient>
    <linearGradient id="emberStroke" x1="-180" y1="-220" x2="220" y2="360" gradientUnits="userSpaceOnUse">
      <stop offset="0%" stop-color="#ffb56b"/>
      <stop offset="38%" stop-color="#ff7a2f"/>
      <stop offset="72%" stop-color="#ff553b"/>
      <stop offset="100%" stop-color="#d73547"/>
    </linearGradient>
    <linearGradient id="specStroke" x1="28" y1="-112" x2="154" y2="44" gradientUnits="userSpaceOnUse">
      <stop offset="0%" stop-color="#77f0d3"/>
      <stop offset="100%" stop-color="#1ba7d7"/>
    </linearGradient>
    <filter id="softGlow" x="-20%" y="-20%" width="140%" height="140%">
      <feGaussianBlur stdDeviation="30"/>
    </filter>
    <filter id="emberGlow" x="-60%" y="-60%" width="220%" height="220%">
      <feDropShadow dx="0" dy="0" stdDeviation="12" flood-color="#ff6a3d" flood-opacity="0.35"/>
      <feDropShadow dx="0" dy="0" stdDeviation="24" flood-color="#ff7c38" flood-opacity="0.2"/>
    </filter>
    <filter id="specGlow" x="-80%" y="-80%" width="260%" height="260%">
      <feDropShadow dx="0" dy="0" stdDeviation="8" flood-color="#2cc7e6" flood-opacity="0.25"/>
    </filter>
  </defs>

  <rect width="1024" height="1024" fill="url(#bg)"/>
  <rect width="1024" height="1024" fill="url(#grid)" opacity="0.16"/>
  <circle cx="744" cy="458" r="360" fill="url(#coolHalo)"/>
  <circle cx="248" cy="526" r="250" fill="url(#warmHalo)" filter="url(#softGlow)"/>
  <path d="M0 832C170 780 296 766 456 784C622 804 790 878 1024 832V1024H0V832Z" fill="#050b15" opacity="0.58"/>

  <g transform="translate(252 522)">
    <g filter="url(#emberGlow)" fill="none" stroke="url(#emberStroke)" stroke-width="18" stroke-linecap="round" stroke-linejoin="round">
      <path d="M-18 -170C-94 -184 -154 -244 -160 -318C-112 -248 -42 -210 42 -206"/>
      <path d="M-42 -98C-148 -116 -226 -184 -248 -278C-180 -206 -78 -150 42 -142"/>
      <path d="M-58 12C-178 -4 -276 -70 -322 -164C-228 -88 -112 -34 24 -28"/>
      <path d="M12 -182C64 -236 146 -248 230 -220C180 -208 146 -182 126 -148C98 -102 94 -44 112 28"/>
      <path d="M-6 -172C42 -156 76 -114 84 -60C96 18 74 92 54 162C48 186 48 236 54 304"/>
      <path d="M54 222C26 270 -8 314 -54 356"/>
      <path d="M54 222C98 266 148 298 206 318"/>
    </g>
    <g filter="url(#specGlow)">
      <path d="M74 -112L150 -68L112 44L28 -4Z" fill="none" stroke="url(#specStroke)" stroke-width="14" stroke-linejoin="round"/>
      <path d="M104 -10L150 -68" stroke="url(#specStroke)" stroke-width="10" stroke-linecap="round"/>
      <path d="M56 -26L116 6" stroke="url(#specStroke)" stroke-width="8" stroke-linecap="round"/>
    </g>
    <circle cx="54" cy="304" r="18" fill="#ff6a3d"/>
    <circle cx="-54" cy="356" r="18" fill="#ff9155"/>
    <circle cx="206" cy="318" r="18" fill="#ffb36c"/>
  </g>

  <g font-family="'Segoe UI', Aptos, Arial, sans-serif">
    <rect x="420" y="328" width="252" height="44" rx="22" fill="#0f1b2f" stroke="#ff9352" stroke-opacity="0.42"/>
    <text x="453" y="357" fill="#ffbf85" font-size="26" font-weight="700" letter-spacing="4">CODENAME PHOENIX</text>

    <text x="420" y="490" fill="#f7f4ef" font-size="104" font-weight="800" letter-spacing="1">SPECTEAM</text>
    <text x="420" y="558" fill="#b8c2d3" font-size="30" font-weight="600" letter-spacing="1.6">AI-NATIVE SPEC REVIEW</text>
    <text x="420" y="596" fill="#b8c2d3" font-size="30" font-weight="600" letter-spacing="1.6">AND DECISION ALIGNMENT</text>
    <text x="420" y="644" fill="#7d8aa3" font-size="24" letter-spacing="0.4">Align divergences, resolve trade-offs,</text>
    <text x="420" y="676" fill="#7d8aa3" font-size="24" letter-spacing="0.4">and sync the source of truth.</text>

    <path d="M420 720H884" stroke="#27486f" stroke-width="2"/>

    <rect x="420" y="758" width="150" height="44" rx="22" fill="#101a2a" stroke="#ff7a34" stroke-opacity="0.4"/>
    <circle cx="448" cy="780" r="8" fill="#ff6a3d"/>
    <text x="468" y="787" fill="#dbe5f4" font-size="22" font-weight="600">Open</text>

    <rect x="590" y="758" width="178" height="44" rx="22" fill="#101a2a" stroke="#ffb46e" stroke-opacity="0.4"/>
    <circle cx="618" cy="780" r="8" fill="#ffb46e"/>
    <text x="638" y="787" fill="#dbe5f4" font-size="22" font-weight="600">Proposed</text>

    <rect x="788" y="758" width="184" height="44" rx="22" fill="#101a2a" stroke="#5fe0be" stroke-opacity="0.42"/>
    <circle cx="816" cy="780" r="8" fill="#5fe0be"/>
    <text x="836" y="787" fill="#dbe5f4" font-size="22" font-weight="600">Resolved</text>
  </g>
</svg>